<?xml version="1.0" encoding="UTF-8" standalone="no"?>
<svg
   xmlns:dc="http://purl.org/dc/elements/1.1/"
   xmlns:cc="http://creativecommons.org/ns#"
   xmlns:rdf="http://www.w3.org/1999/02/22-rdf-syntax-ns#"
   xmlns:svg="http://www.w3.org/2000/svg"
   xmlns="http://www.w3.org/2000/svg"
   xmlns:sodipodi="http://sodipodi.sourceforge.net/DTD/sodipodi-0.dtd"
   xmlns:inkscape="http://www.inkscape.org/namespaces/inkscape"
   id="svg2"
   version="1.1"
   inkscape:version="0.91 r13725"
   sodipodi:docname="nieuwsion.svg"
   width="190.565"
   height="32.000999">
  <metadata
     id="metadata26">
    <rdf:RDF>
      <cc:Work
         rdf:about="">
        <dc:format>image/svg+xml</dc:format>
        <dc:type
           rdf:resource="http://purl.org/dc/dcmitype/StillImage" />
        <dc:title></dc:title>
      </cc:Work>
    </rdf:RDF>
  </metadata>
  <defs
     id="defs24" />
  <sodipodi:namedview
     pagecolor="#ffffff"
     bordercolor="#666666"
     borderopacity="1"
     objecttolerance="10"
     gridtolerance="10"
     guidetolerance="10"
     inkscape:pageopacity="0"
     inkscape:pageshadow="2"
     inkscape:window-width="640"
     inkscape:window-height="480"
     id="namedview22"
     showgrid="false"
     inkscape:zoom="2.36"
     inkscape:cx="47.731198"
     inkscape:cy="-18.001"
     inkscape:window-x="0"
     inkscape:window-y="24"
     inkscape:window-maximized="0"
     inkscape:current-layer="svg2"
     fit-margin-top="0"
     fit-margin-left="0"
     fit-margin-right="0"
     fit-margin-bottom="0" />
  <path
     class="path1"
     d="M 10e-4,10.923 C 1.024,10.627 2.343,10.351 3.958,10.095 5.573,9.839 7.269,9.711 9.046,9.711 c 1.803,0 3.304,0.236 4.502,0.707 1.197,0.471 2.146,1.138 2.847,1.999 0.701,0.861 1.197,1.884 1.494,3.069 0.296,1.185 0.444,2.504 0.444,3.957 l 0,11.993 -6.017,0 0,-11.266 c 0,-1.938 -0.256,-3.311 -0.767,-4.119 -0.512,-0.808 -1.468,-1.211 -2.867,-1.211 -0.431,0 -0.888,0.02 -1.373,0.061 -0.485,0.041 -0.915,0.088 -1.292,0.142 l 0,16.394 -6.017,0 0,-20.514 z"
     id="path4"
     style="fill:#2b0000"
     inkscape:connector-curvature="0" />
  <path
     class="path2"
     d="m 30.367,4.059 c 0,1.104 -0.357,1.972 -1.07,2.604 -0.714,0.633 -1.555,0.949 -2.523,0.949 -0.968,0 -1.811,-0.316 -2.523,-0.949 -0.714,-0.632 -1.07,-1.501 -1.07,-2.604 0,-1.103 0.357,-1.972 1.07,-2.604 0.713,-0.632 1.554,-0.949 2.523,-0.949 0.969,0 1.81,0.316 2.523,0.949 0.713,0.632 1.07,1.501 1.07,2.604 z m -0.566,27.378 -6.017,0 0,-21.24 6.017,0 0,21.24 z"
     id="path6"
     style="fill:#2b0000"
     inkscape:connector-curvature="0" />
  <path
     class="path3"
     d="m 34.445,20.978 c 0,-1.884 0.289,-3.533 0.868,-4.947 0.579,-1.414 1.339,-2.59 2.282,-3.533 0.942,-0.942 2.025,-1.656 3.251,-2.14 1.224,-0.485 2.483,-0.727 3.776,-0.727 3.014,0 5.397,0.923 7.147,2.766 1.75,1.843 2.625,4.557 2.625,8.136 0,0.35 -0.014,0.734 -0.04,1.151 -0.026,0.417 -0.054,0.787 -0.081,1.11 l -13.649,0 c 0.134,1.238 0.713,2.221 1.736,2.948 1.023,0.727 2.396,1.09 4.119,1.09 1.103,0 2.187,-0.101 3.251,-0.303 1.063,-0.202 1.931,-0.451 2.604,-0.747 l 0.807,4.886 c -0.323,0.161 -0.754,0.323 -1.292,0.485 -0.538,0.162 -1.138,0.303 -1.797,0.424 -0.66,0.121 -1.367,0.222 -2.12,0.303 -0.754,0.081 -1.508,0.121 -2.261,0.121 -1.912,0 -3.573,-0.282 -4.987,-0.848 -1.414,-0.566 -2.585,-1.339 -3.513,-2.322 -0.929,-0.982 -1.615,-2.146 -2.059,-3.493 -0.444,-1.347 -0.667,-2.799 -0.667,-4.361 z m 14.133,-2.301 c -0.027,-0.511 -0.115,-1.01 -0.263,-1.494 -0.148,-0.484 -0.377,-0.915 -0.686,-1.292 -0.31,-0.376 -0.7,-0.686 -1.171,-0.929 -0.471,-0.243 -1.057,-0.363 -1.756,-0.363 -0.674,0 -1.252,0.115 -1.737,0.343 -0.485,0.228 -0.889,0.532 -1.211,0.909 -0.323,0.378 -0.572,0.815 -0.747,1.312 -0.175,0.499 -0.303,1.003 -0.383,1.514 l 7.955,0 z"
     id="path8"
     style="fill:#2b0000"
     inkscape:connector-curvature="0" />
  <path
     class="path4"
     d="m 77.167,30.71 c -1.023,0.297 -2.342,0.572 -3.957,0.828 -1.615,0.256 -3.311,0.384 -5.088,0.384 -1.804,0 -3.305,-0.242 -4.502,-0.727 -1.198,-0.485 -2.147,-1.164 -2.847,-2.039 -0.7,-0.875 -1.198,-1.918 -1.494,-3.13 -0.296,-1.212 -0.444,-2.544 -0.444,-3.997 l 0,-11.832 6.017,0 0,11.105 c 0,1.938 0.255,3.339 0.767,4.2 0.511,0.862 1.467,1.292 2.867,1.292 0.43,0 0.888,-0.02 1.373,-0.061 0.485,-0.041 0.915,-0.087 1.292,-0.142 l 0,-16.394 6.017,0 0,20.513 z"
     id="path10"
     style="fill:#2b0000"
     inkscape:connector-curvature="0" />
  <path
     class="path5"
     d="m 95.358,19.242 c -0.538,2.046 -1.111,4.078 -1.716,6.097 -0.605,2.019 -1.245,4.052 -1.917,6.097 l -4.685,0 C 86.554,30.305 86.028,28.96 85.461,27.398 84.894,25.837 84.307,24.134 83.699,22.29 83.091,20.446 82.47,18.494 81.836,16.435 81.202,14.376 80.588,12.296 79.994,10.197 l 6.34,0 c 0.216,0.969 0.453,2.026 0.71,3.17 0.257,1.144 0.528,2.322 0.813,3.533 0.285,1.211 0.582,2.43 0.894,3.654 0.311,1.225 0.628,2.403 0.954,3.533 0.349,-1.185 0.692,-2.396 1.029,-3.634 0.337,-1.238 0.66,-2.457 0.97,-3.654 0.309,-1.197 0.606,-2.355 0.888,-3.473 0.282,-1.118 0.532,-2.161 0.747,-3.13 l 4.362,0 c 0.215,0.969 0.457,2.012 0.727,3.13 0.268,1.117 0.551,2.275 0.847,3.473 0.296,1.198 0.606,2.416 0.929,3.654 0.323,1.238 0.659,2.45 1.01,3.634 0.324,-1.131 0.65,-2.308 0.975,-3.533 0.324,-1.225 0.629,-2.443 0.914,-3.654 0.285,-1.211 0.555,-2.389 0.812,-3.533 0.258,-1.144 0.494,-2.201 0.712,-3.17 l 6.258,0 c -0.595,2.099 -1.208,4.179 -1.843,6.238 -0.635,2.059 -1.255,4.012 -1.862,5.855 -0.608,1.844 -1.201,3.547 -1.783,5.108 -0.58,1.562 -1.114,2.907 -1.599,4.038 l -4.684,0 c -0.673,-2.045 -1.333,-4.078 -1.978,-6.097 -0.648,-2.019 -1.24,-4.051 -1.779,-6.097 z"
     id="path12"
     style="fill:#2b0000"
     inkscape:connector-curvature="0" />
  <path
     class="path6"
     d="m 131.813,27.724 c -0.466,0.856 -1.089,1.554 -1.869,2.094 -0.782,0.541 -1.674,0.931 -2.68,1.171 -1.007,0.241 -2.065,0.36 -3.176,0.36 -1.321,0 -2.567,-0.12 -3.738,-0.36 -1.171,-0.24 -2.251,-0.585 -3.243,-1.036 l 0,-5.945 0.36,0 c 0.239,0.721 0.538,1.479 0.897,2.274 0.359,0.795 0.793,1.531 1.301,2.207 0.509,0.676 1.122,1.231 1.839,1.666 0.717,0.435 1.57,0.653 2.557,0.653 1.435,0 2.578,-0.413 3.432,-1.239 0.852,-0.826 1.278,-2.094 1.278,-3.806 0,-0.93 -0.292,-1.704 -0.875,-2.319 -0.584,-0.615 -1.384,-1.028 -2.401,-1.238 -0.808,-0.15 -1.586,-0.315 -2.333,-0.495 -0.747,-0.18 -1.42,-0.375 -2.019,-0.586 -1.137,-0.39 -2.057,-1.066 -2.759,-2.026 -0.702,-0.96 -1.054,-2.117 -1.054,-3.468 0,-0.93 0.195,-1.772 0.585,-2.522 0.389,-0.75 0.915,-1.396 1.576,-1.937 0.661,-0.541 1.425,-0.953 2.297,-1.239 0.87,-0.285 1.801,-0.428 2.792,-0.428 1.261,0 2.372,0.113 3.333,0.338 0.961,0.225 1.877,0.503 2.748,0.833 l 0.54,5.585 -0.36,0.09 c -0.421,-0.901 -0.841,-1.734 -1.261,-2.5 -0.421,-0.766 -0.886,-1.425 -1.396,-1.982 -0.511,-0.555 -1.089,-0.983 -1.734,-1.283 -0.646,-0.3 -1.389,-0.451 -2.23,-0.451 -0.511,0 -1.013,0.09 -1.509,0.27 -0.496,0.18 -0.931,0.443 -1.306,0.788 -0.376,0.346 -0.683,0.781 -0.924,1.306 -0.241,0.526 -0.36,1.134 -0.36,1.824 0,1.111 0.315,1.907 0.946,2.387 0.631,0.48 1.425,0.841 2.387,1.081 0.66,0.151 1.381,0.308 2.162,0.473 0.781,0.165 1.456,0.323 2.027,0.473 1.351,0.331 2.499,1.021 3.446,2.072 0.947,1.051 1.419,2.342 1.419,3.873 10e-4,1.17 -0.233,2.184 -0.698,3.039 z"
     id="path14"
     style="fill:#2b0000"
     inkscape:connector-curvature="0" />
  <path
     class="path7"
     d="m 133.906,31.259 0,-0.45 c 0.36,-0.03 0.721,-0.067 1.081,-0.113 0.36,-0.046 0.683,-0.12 0.968,-0.225 0.285,-0.105 0.525,-0.248 0.721,-0.428 0.195,-0.18 0.292,-0.405 0.292,-0.675 l 0,-15.449 c 0,-0.24 -0.022,-0.451 -0.067,-0.631 -0.045,-0.18 -0.173,-0.345 -0.383,-0.495 -0.27,-0.18 -0.593,-0.36 -0.968,-0.54 -0.376,-0.18 -0.773,-0.345 -1.193,-0.495 l 0,-0.27 6.08,-1.982 0.27,0 0,20.133 c 0.06,0.301 0.187,0.518 0.383,0.653 0.196,0.135 0.428,0.233 0.698,0.293 0.27,0.061 0.563,0.098 0.878,0.112 0.315,0.016 0.623,0.053 0.924,0.113 l 0,0.45 -9.685,0 z m 6.463,-27.136 c -0.466,0.466 -1.043,0.698 -1.733,0.698 -0.661,0 -1.232,-0.24 -1.712,-0.721 -0.48,-0.48 -0.721,-1.051 -0.721,-1.712 0,-0.69 0.232,-1.261 0.698,-1.712 C 137.366,0.225 137.944,0 138.635,0 c 0.69,0 1.268,0.225 1.733,0.676 0.465,0.451 0.699,1.021 0.699,1.712 0,0.691 -0.233,1.269 -0.699,1.734 z"
     id="path16"
     style="fill:#2b0000"
     inkscape:connector-curvature="0" />
  <path
     class="path8"
     d="m 165.84,24.571 c -0.571,1.366 -1.337,2.56 -2.297,3.58 -0.961,1.021 -2.08,1.817 -3.356,2.387 -1.276,0.571 -2.62,0.856 -4.031,0.856 -1.171,0 -2.387,-0.21 -3.648,-0.631 -1.261,-0.421 -2.425,-1.088 -3.49,-2.004 -1.066,-0.915 -1.937,-2.087 -2.612,-3.513 -0.676,-1.426 -1.013,-3.1 -1.013,-5.022 0,-1.381 0.262,-2.717 0.788,-4.009 0.525,-1.291 1.261,-2.432 2.207,-3.423 0.946,-0.991 2.087,-1.786 3.423,-2.387 1.336,-0.6 2.815,-0.901 4.437,-0.901 1.2,0 2.416,0.225 3.648,0.676 1.231,0.451 2.349,1.119 3.356,2.004 1.005,0.886 1.831,1.997 2.477,3.333 0.645,1.337 0.968,2.905 0.968,4.707 -0.001,1.532 -0.287,2.981 -0.856,4.347 z m -3.672,-7.679 c -0.225,-1.171 -0.593,-2.252 -1.103,-3.243 -0.511,-0.991 -1.186,-1.809 -2.027,-2.455 -0.841,-0.646 -1.877,-0.969 -3.108,-0.969 -0.99,0 -1.877,0.301 -2.657,0.901 -0.781,0.601 -1.448,1.389 -2.004,2.365 -0.556,0.976 -0.976,2.072 -1.261,3.287 -0.285,1.215 -0.428,2.455 -0.428,3.716 0,1.382 0.12,2.687 0.36,3.918 0.24,1.232 0.631,2.319 1.171,3.265 0.54,0.946 1.231,1.697 2.072,2.252 0.84,0.556 1.846,0.833 3.017,0.833 1.171,0 2.154,-0.352 2.95,-1.058 0.795,-0.705 1.442,-1.591 1.937,-2.657 0.495,-1.066 0.856,-2.214 1.081,-3.446 0.226,-1.231 0.338,-2.372 0.338,-3.423 0.001,-1.021 -0.112,-2.117 -0.337,-3.288 z"
     id="path18"
     style="fill:#2b0000"
     inkscape:connector-curvature="0" />
  <path
     class="path9"
     d="m 181.422,31.259 0,-0.495 c 0.811,-0.06 1.456,-0.158 1.937,-0.293 0.481,-0.135 0.721,-0.443 0.721,-0.924 l 0,-11.349 c 0,-1.741 -0.331,-3.145 -0.99,-4.211 -0.661,-1.066 -1.773,-1.599 -3.333,-1.599 -0.99,0 -1.817,0.21 -2.478,0.631 -0.661,0.421 -1.396,1.036 -2.207,1.847 l 0,14.773 c 0.06,0.301 0.164,0.518 0.315,0.653 0.15,0.135 0.33,0.233 0.54,0.293 0.209,0.061 0.451,0.098 0.721,0.112 0.27,0.016 0.555,0.053 0.856,0.113 l 0,0.45 -8.692,0 0,-0.45 c 0.69,-0.06 1.283,-0.195 1.779,-0.405 0.496,-0.21 0.743,-0.555 0.743,-1.036 l 0,-15.494 c 0,-0.24 -0.022,-0.42 -0.067,-0.54 -0.045,-0.12 -0.173,-0.254 -0.383,-0.405 -0.27,-0.15 -0.586,-0.322 -0.946,-0.518 -0.36,-0.195 -0.721,-0.367 -1.081,-0.518 l 0,-0.27 5.9,-2.117 0.27,0 0,4.864 0.09,0.045 c 0.329,-0.51 0.74,-1.058 1.234,-1.644 0.494,-0.586 1.055,-1.118 1.683,-1.599 0.628,-0.48 1.316,-0.878 2.065,-1.194 0.747,-0.315 1.525,-0.473 2.333,-0.473 1.736,0 3.067,0.646 3.994,1.937 0.927,1.291 1.391,2.958 1.391,4.999 l 0,13.241 c 0,0.21 0.098,0.391 0.293,0.54 0.195,0.151 0.428,0.263 0.698,0.338 0.27,0.075 0.563,0.135 0.879,0.18 0.315,0.045 0.608,0.083 0.878,0.113 l 0,0.405 -9.145,0 z"
     id="path20"
     style="fill:#2b0000"
     inkscape:connector-curvature="0" />
</svg>
